<svg xmlns="http://www.w3.org/2000/svg" width="331.606" height="331.903" viewBox="0 0 331.606 331.903"><path d="M688.278 505.474c38.347-38.65 52.057-52.197 53.835-53.197 1.829-1.029 30.7-7.144 31.229-6.614.409.409-5.984 16.361-20.548 51.27-3.572 8.562-3.991 9.115-8.635 11.388-2.685 1.314-8.481 3.653-12.881 5.197-13.9 4.878-29.343 10.446-50.911 18.358-11.5 4.219-22.3 7.941-24 8.272-2.56.498 2.914-5.449 31.91-34.674m-39.5 29.09c0-1.59 5.829-18.429 12.507-36.132 3.631-9.625 7.672-20.65 8.98-24.5 1.307-3.85 4.61-12.85 7.34-20l4.965-13 17.354-7.092c9.544-3.9 19.604-8.13 22.354-9.399 8.763-4.045 18.73-8.009 20.137-8.009.75 0 1.363.712 1.363 1.582 0 1.349-5.211 23.978-6.544 28.418-.446 1.484-86.907 89-87.927 89-.291 0-.53-.39-.53-.867m111-37.237c0-.607 2.311-6.57 5.136-13.25s7.353-17.77 10.062-24.645c6.038-15.321 8.367-19.394 13.95-24.403 2.394-2.147 15.152-14.53 28.352-27.517 51.188-50.364 67.472-66.08 68.467-66.08.568 0 1.032 1.013 1.031 2.25-.002 3.229-2.559 17.306-5.094 28.04l-2.174 9.21-59.115 58.73c-32.514 32.301-59.453 58.739-59.865 58.75-.413.01-.75-.477-.75-1.085m-15.348-52.576c-.515-.515 2.557-14.86 5.421-25.319 1.94-7.084 2.537-8 10.75-16.5 4.781-4.95 22.886-23.625 40.231-41.5s38.508-39.78 47.028-48.678c12.705-13.268 19.08-18.918 35.454-31.418a19128 19128 0 0 0 29.84-22.823c37.085-28.464 65.988-50.08 66.963-50.08 1.627 0-3.211 6.59-42.84 58.355a3607 3607 0 0 0-16 21.073c-27.886 37.115-26.82 35.937-71.007 78.519a10092 10092 0 0 0-30.992 30.027c-45.158 43.972-42.46 41.592-48.5 42.802-3.025.605-10.094 2.197-15.71 3.536-5.614 1.34-10.402 2.242-10.638 2.006m-52.652-15.432c0-.626 3.487-4.732 7.75-9.122 17.154-17.67 107.12-107.108 108.389-107.754.748-.38 4.06-1.245 7.36-1.92 3.3-.676 10.562-2.323 16.137-3.66 12.052-2.89 15.854-3.13 14.618-.92-.465.83-7.575 8.392-15.8 16.803-8.225 8.41-30.317 31.019-49.094 50.24-33.478 34.27-34.272 34.998-41 37.616-3.773 1.468-12.935 5.218-20.36 8.333-7.425 3.114-15.075 6.258-17 6.986a219 219 0 0 0-7.25 2.93c-2.533 1.086-3.75 1.238-3.75.468" style="fill:#9eecef" transform="translate(-648.778 -208.432)"/><path d="M655.197 539.682c.414-.412 20.004-20.153 43.534-43.867 32.516-32.77 43.474-43.232 45.664-43.596 1.586-.263 8.411-1.732 15.169-3.264 6.757-1.531 12.484-2.586 12.726-2.344s-1.748 5.813-4.423 12.38c-12.27 30.128-15.294 37.301-17.85 42.352l-2.74 5.411-19.5 7.169a27775 27775 0 0 0-32.5 11.97c-7.15 2.641-15.25 5.617-18 6.614s-8.781 3.187-13.403 4.868c-8.917 3.244-9.871 3.497-8.677 2.307m-6.418-4.412c-.001-.759 16.028-44.866 29.429-80.98l4.691-12.642 5.19-2.19c2.854-1.204 11.264-4.671 18.689-7.706 7.425-3.034 15.525-6.436 18-7.56s7.537-3.28 11.25-4.792c5.845-2.38 6.75-2.527 6.75-1.093 0 .912-1.584 7.95-3.519 15.641l-3.519 13.984-13.938 14c-7.667 7.7-27.233 27.5-43.48 44-16.249 16.5-29.543 29.702-29.543 29.338m116.59-51.011c3.052-7.33 8.105-19.777 11.23-27.66l5.679-14.333 31.411-30.667c36.606-35.738 59.454-57.826 66.839-64.614 5.01-4.607 5.25-4.711 5.25-2.297 0 3.152-6.625 34.322-7.653 36.008-1.055 1.73-116.325 116.162-117.416 116.563-.49.18 1.607-5.67 4.66-13m-20.581-40.468c.006-.473 1.744-7.74 3.862-16.15l3.853-15.29 7.902-8.21c4.347-4.515 29.62-30.565 56.162-57.89l48.259-49.68 35.125-26.82c19.318-14.75 38.545-29.45 42.726-32.666 11.623-8.94 33.417-25.186 35.1-26.165 1.194-.694 1.277-.577.403.57-.604.793-3.33 4.367-6.059 7.942s-11.767 15.5-20.086 26.5c-8.32 11-18.772 24.725-23.227 30.5s-9.531 12.525-11.278 15c-8.178 11.586-27.41 35.895-31.118 39.331-2.274 2.107-9.984 9.523-17.134 16.48-7.15 6.956-19.975 19.408-28.5 27.67s-26.313 25.597-39.528 38.521l-24.027 23.498-13.973 3.367c-18.783 4.526-18.474 4.468-18.462 3.492m-53.01-14.685c5.057-5.811 115.778-115.775 116.905-116.105 2.98-.874 28.143-6.638 32.673-7.485 2.48-.463 4.376-.49 4.215-.059-.406 1.084-92.752 96.09-97.936 100.757-.903.813-12.985 6.129-26.847 11.812-25.315 10.378-29.935 12.143-29.01 11.08" style="fill:#5ed2d8" transform="translate(-648.778 -208.432)"/><path d="M690.105 505.439c18.795-18.697 34.623-34.466 35.173-35.043s4.53-4.57 8.846-8.874l7.846-7.826 12.464-2.74c6.854-1.506 12.738-2.463 13.073-2.128.336.336 1.601-.038 2.812-.83 1.923-1.26 1.572.094-2.784 10.746-11.25 27.515-13.722 33.501-16.55 40.084l-2.962 6.895-14.372 5.446c-7.905 2.995-17.973 6.733-22.373 8.307s-18.35 6.707-31 11.407-23.303 8.547-23.673 8.548 14.704-15.296 33.5-33.992M649.81 533.34c-.032-.596 13.217-36.965 20.914-57.408 2.278-6.05 5.272-14.15 6.654-18s2.881-7.9 3.332-9l1.839-4.5c.8-1.96 3.362-3.436 11.874-6.836 5.97-2.385 14.325-5.872 18.566-7.75s8.34-3.414 9.11-3.414c.768 0 4.02-1.4 7.228-3.111 3.206-1.711 7.463-3.688 9.459-4.392l3.628-1.28-1.344 5.642c-2.775 11.645-5.657 21.723-6.903 24.141-1.285 2.495-84.295 87.03-84.357 85.908m112.959-41.884c1.187-3.012 3.873-9.537 5.97-14.5s6.115-14.763 8.928-21.777c3.916-9.766 6.016-13.63 8.963-16.5 2.116-2.06 12.135-11.847 22.265-21.747s26.96-26.166 37.4-36.146c40.916-39.114 37.954-36.482 38.28-34.012.369 2.799-5.153 27.901-7.184 32.658-.97 2.272-21.43 23.204-58.304 59.65-31.245 30.883-57.184 56.533-57.643 57-.458.468.138-1.614 1.325-4.626m-13.428-51.258c1.615-1.78 2.001-2.454.858-1.5-4.137 3.451-4.121 2.247.2-15.44l2.364-9.676 12.257-12.806c6.742-7.043 22.158-22.918 34.258-35.277 26.804-27.379 29.26-29.918 47.5-49.113 17.86-18.796 17.004-17.976 25.5-24.446 3.85-2.932 11.725-8.978 17.5-13.436 14.583-11.257 44.654-34.157 48.024-36.572 1.535-1.1 4.07-3.029 5.634-4.287 4.392-3.534 21.467-16.507 25.007-19l3.166-2.229-.666 2.258c-.518 1.757-13.748 20.385-16.164 22.758-.648.637-17.84 23.292-20.501 27.017-2.069 2.895-5.004 6.629-9.75 12.402-1.513 1.84-2.75 3.748-2.75 4.24 0 .494-.788 1.65-1.75 2.572-.963.92-3.67 4.283-6.018 7.472-14.282 19.4-26.073 33.796-33.378 40.754-7.856 7.483-61.597 59.652-90.378 87.736l-13.024 12.708-13.97 3.55c-7.682 1.952-14.618 3.55-15.412 3.55-.951 0-.442-1.105 1.493-3.235m13.937-13.766c4.927-4.95 8.733-9 8.458-9s-4.531 4.05-9.458 9-8.734 9-8.459 9 4.532-4.05 9.459-9m71.5-72.708c0-.751-.898.043-5.042 4.458l-4.458 4.75 4.75-4.458c2.612-2.452 4.75-4.59 4.75-4.75m-141 74.29c0-.347 1.152-1.07 2.56-1.605s2.297-1.399 1.975-1.92c-.879-1.422 108.742-111.056 111.048-111.06 1.054-.002 8.41-1.597 16.347-3.546s15.233-3.41 16.215-3.247c1.297.215-2.507 4.675-13.93 16.329-40.212 41.025-63.215 64.917-63.215 65.658 0 .445-1.013.816-2.25.824-1.462.01-1.82.289-1.023.795.842.535-1.355 3.331-7 8.91l-8.227 8.13-25 10.202c-13.75 5.611-25.563 10.418-26.25 10.682s-1.25.196-1.25-.152" style="fill:#08e5f5" transform="translate(-648.778 -208.432)"/><path d="M690.105 505.439c18.795-18.697 34.623-34.466 35.173-35.043s4.527-4.567 8.837-8.866l7.838-7.817 11.987-2.654c6.592-1.46 12.422-2.384 12.956-2.054s2.017-.087 3.296-.925c2.108-1.38 1.857-.374-2.657 10.664-11.25 27.515-13.722 33.501-16.55 40.084l-2.962 6.895-14.372 5.446c-7.905 2.995-17.973 6.733-22.373 8.307s-18.35 6.707-31 11.407-23.303 8.547-23.673 8.548 14.704-15.296 33.5-33.992m50.8-34.757c1.244-1.586 1.209-1.621-.377-.377-.963.754-1.75 1.542-1.75 1.75 0 .823.821.293 2.127-1.373m4-3c1.244-1.586 1.209-1.621-.377-.377-.963.754-1.75 1.542-1.75 1.75 0 .823.821.293 2.127-1.373m-4.33-2.488c-.828-.583.412-.75 3.434-.463 4.36.416 7.757-.978 6.193-2.54-.306-.308.126-.491.96-.409 1.957.193 10.528-6.435 10.578-8.18.026-.917-.815-1.164-2.712-.796-1.513.293-5 .805-7.75 1.137-2.75.333-5.428 1.029-5.95 1.547s-1.873.949-3 .957c-1.567.012-1.723.223-.663.894 1.134.718.996 1.3-.751 3.175-2.43 2.608-2.774 8.69-.38 6.704 1.093-.907 1.1-1.28.041-2.026m-90.772 68.146c-.026-.6 13.321-37.223 20.921-57.408 2.278-6.05 5.272-14.15 6.654-18s2.881-7.9 3.332-9l1.839-4.5c.8-1.96 3.362-3.436 11.874-6.836 5.97-2.385 14.325-5.872 18.566-7.75s8.34-3.414 9.11-3.414c.768 0 4.02-1.4 7.228-3.111 3.206-1.711 7.52-3.707 9.584-4.436 3.368-1.188 3.691-1.159 3.137.286-.34.886-1.192 4.12-1.893 7.186-.892 3.904-1.215 4.53-1.076 2.09.292-5.114-2.333-5.077-5.747.083-1.523 2.3-5.406 7.607-8.629 11.793-13.867 18.005-19.719 26.618-18.579 27.344 1.798 1.145 6.126.893 7.454-.435.66-.66 1.2-2.265 1.2-3.567 0-1.97.362-2.253 2.158-1.683 1.715.545 2.947-.195 6-3.602 2.113-2.358 3.842-4.736 3.842-5.284 0-.549.306-.69.68-.317.375.375 2.062-.552 3.75-2.06 4.213-3.763-10.36 11.225-48.823 50.213-17.906 18.15-32.568 32.734-32.582 32.408m46.658-55.095c-.32-.798-.556-.561-.604.604-.044 1.054.193 1.645.525 1.312s.368-1.195.079-1.916m7.317-2.872c0-.582.46-.774 1.025-.426.563.349.96.263.881-.19-.079-.454-.055-1.05.052-1.325.405-1.04.854-4 .606-4-.142 0-1.227.84-2.411 1.867-2.212 1.919-2.934 5.133-1.153 5.133.55 0 1-.476 1-1.059m58.99 16.083c1.188-3.012 3.874-9.537 5.971-14.5s6.115-14.763 8.928-21.777c3.916-9.766 6.016-13.63 8.963-16.5 2.116-2.06 12.135-11.847 22.265-21.747s26.96-26.166 37.4-36.146c40.916-39.114 37.954-36.482 38.28-34.012.369 2.799-5.153 27.901-7.184 32.658-.97 2.272-21.43 23.204-58.304 59.65-31.245 30.883-57.184 56.533-57.643 57-.458.468.138-1.614 1.325-4.626m116.01-123.149c0-1.653.507-3.954 1.126-5.111.903-1.687.806-2.34-.484-3.284-.886-.648-1.28-1.53-.877-1.96.404-.43-.279-.165-1.517.59-2.237 1.364-2.578 3.985-.873 6.707.454.724.559 1.582.234 1.908s-.033 1.281.65 2.125c.983 1.215.983 1.38.002.79-.84-.505-1.047-.247-.645.802.913 2.379 2.384.795 2.384-2.567m-148 78.566c0-.857.457-1.276 1.016-.93.56.345.758 1.046.441 1.558-.857 1.387-1.457 1.129-1.457-.628m49.667-37.927c18.608-18.967 34.186-34.492 34.618-34.5s.303.886-.285 1.986c-2.088 3.901-.323 1.914 3.775-4.25 2.285-3.437 10.92-12.994 19.19-21.237 8.27-8.244 15.035-15.425 15.035-15.959s-2.115 1.036-4.7 3.488-4.056 3.558-3.269 2.458c2.526-3.53 7.23-7.456 8.209-6.852.521.323 17.87-16.229 38.551-36.78 52.967-52.636 61.537-60.798 63.879-60.845 1.66-.033 11.651-14.023 10.015-14.023-.735 0-2.393 1.125-3.685 2.5s-2.833 2.484-3.425 2.464c-1.211-.04 2.857-3.627 9.085-8.009 3.969-2.793 4.13-2.824 3.5-.69-.514 1.74-13.76 20.379-16.16 22.735-.647.637-17.839 23.292-20.5 27.017-2.069 2.895-5.004 6.629-9.75 12.402-1.513 1.84-2.75 3.748-2.75 4.24 0 .494-.788 1.65-1.75 2.572-.963.92-3.67 4.283-6.018 7.472-14.282 19.4-26.073 33.796-33.378 40.754-7.856 7.483-61.597 59.652-90.378 87.736l-13.024 12.708-13.97 3.55c-7.682 1.952-14.57 3.55-15.308 3.55-.736 0 13.886-15.52 32.493-34.487m22.333-11.514c.588-1.1.845-2 .57-2s-.982.9-1.57 2-.846 2-.57 2c.274 0 .981-.9 1.57-2m-66.915 43c-.03-.825.382-2.175.915-3 1.181-1.828 1.181-.249 0 2.5-.567 1.319-.878 1.49-.915.5m11.4-3.25c.355-1.787 1.781-8.051 3.17-13.92 2.206-9.317 2.917-10.966 5.604-13 1.693-1.281 3.564-2.946 4.16-3.699 2.789-3.53 20.922-22.583 39.62-41.63 11.337-11.55 22.517-23.011 24.844-25.468 3.246-3.427 4.428-4.147 5.081-3.09.94 1.519.301 4.057-1.02 4.057-2.003 0-5.944 4.904-5.944 7.396 0 1.467-.673 2.925-1.494 3.24-.822.316-1.241.984-.931 1.485s.982.653 1.494.336c.512-.316.93-.186.93.289 0 .474 1.838.971 4.083 1.104 3.82.225 4.04.094 3.434-2.055-.476-1.69-.386-1.916.342-.86.817 1.186 1.263 1.21 2.555.137.86-.714 1.35-1.646 1.087-2.072-.41-.664 3.536-2.297 4.127-1.706.118.118-3.526 4.206-8.097 9.086-6.242 6.662-10.812 10.396-18.352 14.996-11.123 6.784-45.178 29.662-45.178 30.35 0 .473 3.702-1.715 14.26-8.428 3.718-2.364 6.948-4.298 7.177-4.298s.622.788.873 1.75c.436 1.667.463 1.667.574 0 .064-.962.404-1.75.756-1.75.351 0 1.288.788 2.081 1.75 1.36 1.651 1.408 1.644.843-.127-.374-1.17.066-2.382 1.168-3.218 1.6-1.213 1.609-1.344.101-1.373-.917-.018-1.84.486-2.05 1.118s-1.006.942-1.768.689c-.828-.276.498-1.514 3.3-3.08 2.577-1.44 4.685-2.2 4.685-1.689 0 1.927 2.55.804 6.403-2.82l3.988-3.75-3.359 4c-4.782 5.696-57.692 59.5-58.51 59.5-.375 0-.391-1.462-.037-3.25m18.008-33.738c.35-.567-.051-.735-.941-.393-1.733.664-2.05 1.381-.611 1.381.517 0 1.216-.445 1.552-.988m63.507-47.442c0-.039-1.036-.07-2.303-.07-1.66 0-2.354.622-2.487 2.232l-.185 2.233 2.487-2.163c1.368-1.19 2.488-2.194 2.488-2.232m-135 72.012c0-.347 1.152-1.07 2.56-1.605s2.297-1.399 1.975-1.92c-.885-1.433 108.747-111.06 111.048-111.042 1.514.013 1.62.203.505.91-1.09.69-.862.986 1 1.3 2.098.354 1.956.504-1.09 1.156-3.105.664-3.957 1.613-7.5 8.357a645 645 0 0 1-8.106 14.856c-2.26 3.987-4.342 8.994-4.628 11.127-.47 3.502-.303 3.88 1.712 3.88 1.626 0 2.195-.557 2.098-2.05-.155-2.403 1.108-3.514 4.02-3.536 2.576-.018 5.108-2.708 5.565-5.909.257-1.807 1.053-2.468 3.25-2.698 3.438-.36 4.722-2.038 3.94-5.15-.412-1.643-.128-2.258 1.042-2.258.885 0 1.609.742 1.609 1.648 0 1.187.77.788 2.75-1.422 4.415-4.93 4.923-5.706 4.523-6.906-.209-.626.99-1.438 2.662-1.806 3.385-.743 4.565-2.039 4.565-5.014q-.001-2.002 1.718-1.713c1.799.3 7.311-4.046 8.905-7.02.813-1.517.52-1.674-2.347-1.252-6.57.967-13.776 1.572-13.776 1.157 0-.698 18.882-4.845 20.467-4.495.902.2-4.553 6.46-14.253 16.356-40.269 41.085-63.214 64.917-63.214 65.658 0 .445-1.013.816-2.25.824-1.462.01-1.82.289-1.023.795.842.535-1.355 3.331-7 8.91l-8.227 8.13-25 10.202c-13.75 5.611-25.563 10.418-26.25 10.682s-1.25.196-1.25-.152m136.663-93.017c-.303-.79-.239-1.577.143-1.75s2.93-2.79 5.664-5.815 5.727-6.056 6.65-6.736c1.515-1.116 1.566-.994.53 1.242-.633 1.363-1.441 2.482-1.797 2.486-1.225.015-6.853 5.455-6.853 6.624 0 .643-.722 1.447-1.604 1.786-.916.35-1.358 1.255-1.031 2.107.314.82.184 1.491-.29 1.491s-1.11-.646-1.412-1.435m19.81-22.539c3.252-3.285 6.16-5.726 6.463-5.423s-.887 1.754-2.645 3.224c-1.757 1.47-3.33 3.332-3.493 4.138-.266 1.307-4.073 4.035-5.631 4.035-.333 0 2.056-2.688 5.307-5.974m-31.66-.709c.721-.289 1.584-.253 1.916.079s-.258.569-1.313.525c-1.164-.048-1.401-.285-.604-.604m39.218-6.097c.085-1.94 16.18-16.22 18.28-16.22.463 0-1.33 1.64-3.985 3.645s-6.964 5.816-9.576 8.47-4.736 4.501-4.719 4.105m22.469-19.7c4.958-4.333 9.255-7.259 7.557-5.146-.793.987-3.493 3.139-6 4.781-4.123 2.702-4.271 2.737-1.557.365m9.5-6.927c0-.234 1.8-1.85 4.001-3.594 2.2-1.743 3.766-2.568 3.478-1.834-.495 1.263-7.48 6.332-7.48 5.428m9.366-7.377c.338-.546 8.545-7.005 18.239-14.354 21.28-16.133 21.395-16.217 21.395-15.669 0 .24-3.424 3.108-7.61 6.372-4.185 3.264-8.705 6.948-10.045 8.185s-2.866 2.25-3.39 2.25c-.526 0-.955.34-.955.756s-1.238 1.31-2.75 1.99c-1.513.677-4.342 2.7-6.287 4.493-3.913 3.608-9.558 7.532-8.597 5.977m42.634-32.613c2.37-2.64 6-5.196 6-4.222 0 .248-1.913 1.927-4.25 3.73-3.925 3.028-4.059 3.065-1.75.492" style="fill:#08d4e7" transform="translate(-648.778 -208.432)"/><path d="M688.709 506.682c18.018-18.012 33.505-33.368 34.414-34.122 2.105-1.747 2.163-.78.079 1.305-1.912 1.912-2.943 8.567-1.327 8.567.625 0 .84.724.487 1.642-.47 1.225-.307 1.388.643.642.7-.55 8.023-6.093 16.273-12.318 8.25-6.226 17.475-13.407 20.5-15.96 3.025-2.552 7.15-5.873 9.169-7.38l3.668-2.74-5.032 12.307c-11.261 27.543-13.765 33.609-16.598 40.203l-2.962 6.895-14.372 5.446c-7.905 2.995-17.973 6.733-22.373 8.307s-18.35 6.707-31 11.407-23.3 8.547-23.665 8.548c-.366 0 14.077-14.736 32.096-32.749m-38.906 26.658c-.026-.6 13.321-37.223 20.921-57.408 2.278-6.05 5.272-14.15 6.654-18s2.881-7.9 3.332-9c.45-1.1 1.315-3.237 1.922-4.75s1.59-2.75 2.183-2.75c.595 0 .803.45.463 1-.346.56.431 1 1.766 1 1.312 0 5.726 1.178 9.81 2.618 10.649 3.756 13.053 4.4 12.384 3.318-.648-1.05 2.53-1.26 4.958-.329.87.334 1.582 1.035 1.582 1.56 0 .523-.445.676-.989.34-.556-.344-.74.036-.421.868.34.884-1.88 4.623-5.522 9.302-13.59 17.46-17.738 22.746-21.296 27.134-2.681 3.308-3.383 4.818-2.5 5.379 2.021 1.284 3.185.93 4.746-1.44.815-1.237 7.545-8.1 14.956-15.25s12.586-11.93 11.5-10.622c-3.35 4.036-66.422 67.66-66.449 67.03m112.992-41.884c1.173-3.012 3.847-9.537 5.944-14.5s6.098-14.721 8.89-21.684l5.078-12.66 20.785-20.361c11.432-11.199 25.484-24.852 31.227-30.34s12.952-12.454 16.02-15.479 8.044-7.733 11.058-10.463l5.48-4.964-4.5 4.937c-2.474 2.715-4.894 5.236-5.377 5.601s-.524 1.278-.09 2.027.43 1.038-.009.642c-1.24-1.12-6.605 3.187-6.297 5.055.164 1-.293 1.543-1.146 1.359-1.173-.254-1.195-.037-.127 1.25 1.058 1.275 1.053 1.556-.03 1.556-1 0-1.04.282-.17 1.153.822.822.853 1.713.11 3.103-.574 1.071-.828 2.769-.566 3.772.328 1.254.044 1.657-.91 1.29-.763-.292-1.387-.126-1.387.37 0 2.317 6.726 1.213 11.714-1.923a628 628 0 0 1 10.221-6.265c4.474-2.67 5.033-3.385 5.085-6.5l.058-3.5 1.509 3.48 1.509 3.478-33.652 33.266c-19.748 19.522-34.125 32.996-34.798 32.61-.63-.36-.797-.27-.37.2 1.004 1.102-10.303 12.567-11.603 11.764-.54-.334-.713-.17-.383.363s-7.501 9.04-17.402 18.905l-18.002 17.934zm34.983-45.9c0-.948-.673-.654-2 .876-1.1 1.268-2 2.683-2 3.143s.9.067 2-.875 2-2.356 2-3.143m9.13-12.466c-.612-.738-.896-1.642-.63-2.008s-.014-.252-.621.255c-1.228 1.023-.356 3.095 1.302 3.095.726 0 .71-.425-.05-1.342m3.87-5.717c0-.517-.675-.94-1.5-.94-1.547 0-1.987 1.18-.86 2.305.798.8 2.36-.104 2.36-1.365m-83.943 41.56c1.794-2.488 11.217-11.56 11.604-11.173.156.156-2.715 3.184-6.381 6.728s-6.017 5.544-5.223 4.444m15.443-15.056c2.815-1.118 13.666-3.219 12.895-2.497-.492.461-3.28 1.337-6.194 1.945-5.118 1.07-8.758 1.369-6.701.552m17.312-4.128c.722-.289 1.585-.253 1.917.079s-.258.569-1.313.525c-1.164-.048-1.401-.285-.604-.604m16.688-36.317c16.493-16.5 30.187-30 30.43-30 .244 0-.814 1.314-2.352 2.919-1.7 1.774-2.497 3.403-2.033 4.154.42.68.357.989-.14.687-2.113-1.284-3.727 3.344-2.083 5.97.424.676.255 2.192-.376 3.37-.63 1.178-.712 1.874-.182 1.546.53-.327 5.947-8.594 12.04-18.37l11.077-17.776 40.31-40.005c43.882-43.551 50.809-50.265 50.809-49.246 0 .37-.927 1.537-2.06 2.592l-2.06 1.92 2.708 2.13c2.706 2.128 2.71 2.128 4.117.12.774-1.106 2.058-2.01 2.851-2.01.89 0 1.444-1.004 1.444-2.618 0-2.219.34-2.527 2.244-2.03 1.632.428 2.852-.12 4.478-2.013 1.229-1.43 2.003-2.976 1.72-3.434-.51-.826 2.975-4.906 4.19-4.906.845 0 4.368-4.099 4.368-5.081 0-.427.593-1.37 1.318-2.097s2.864-3.348 4.753-5.825c3.657-4.795 7.929-9.351 7.929-8.458 0 .297-3.488 5.064-7.75 10.594s-8.65 11.32-9.75 12.868c-2.057 2.895-4.942 6.569-9.75 12.418-1.513 1.84-2.75 3.748-2.75 4.24 0 .494-.788 1.65-1.75 2.572-.963.92-3.67 4.283-6.018 7.472-14.282 19.4-26.073 33.796-33.378 40.754-7.856 7.483-61.597 59.652-90.378 87.736l-13.024 12.708-13.97 3.55c-7.682 1.952-14.644 3.55-15.469 3.55s11.994-13.5 28.487-30m16.557-.25c1.775-2.887 3.89-6.262 4.7-7.5.81-1.237 1.236-2.25.947-2.25s-2.285 2.813-4.436 6.25c-5.279 8.434-5.456 8.75-4.913 8.75.26 0 1.926-2.362 3.702-5.25m116.943-130.75c0-.55-.199-1-.441-1-.243 0-.72.45-1.06 1s-.14 1 .442 1 1.059-.45 1.059-1M688.86 440.047c1.643-1.52 16.255-6.707 16.773-5.954.354.514 2.211 1.041 4.127 1.17 1.917.13 3.844.596 4.284 1.036.913.914.539.967-8.129 1.157-3.499.076-8.449.772-11 1.547-4.6 1.396-6.856 1.785-6.055 1.044m57.917-1.174c0-.857.45-1.28 1-.94.55.339 1 1.04 1 1.558s-.45.941-1 .941-1-.701-1-1.559m3.015-1.19c.022-1.1 1.175-2.496 3.92-4.75 2.27-1.866 2.245-1.748-.37 1.75-2.804 3.75-3.579 4.405-3.55 3m-1.857-4.25c0-1.376.227-1.938.504-1.25s.277 1.812 0 2.5-.504.124-.504-1.25m-37.74.13c.327-.528.06-1.138-.593-1.356-1.41-.47 10.26-5.4 14.925-6.304 5.927-1.149 3.364 1.201-3.267 2.996-4.722 1.279-6.444 2.186-6.25 3.296.176 1.01-.7 1.667-2.57 1.93-1.651.232-2.59-.003-2.244-.562m38.883-4.756c.283-1.031 1.28-5.141 2.217-9.134.936-3.992 2.173-7.55 2.75-7.906.689-.426.795.175.312 1.759-.908 2.97-2.517 9.478-3.257 13.168-.305 1.52-1 3.038-1.546 3.376-.577.357-.776-.17-.476-1.263m-55.301-.793c0-.347 1.152-1.07 2.56-1.605s2.297-1.399 1.975-1.92c-.321-.52 24.238-25.833 54.577-56.251 34.733-34.824 55.343-54.792 55.654-53.918.27.763-.21 1.78-1.068 2.261-.858.48-2.983 3.456-4.723 6.612l-6.467 11.74c-1.818 3.3-5.147 8.924-7.399 12.5-4.115 6.533-10.11 17.486-10.11 18.47 0 .291.702.53 1.56.53.857 0 1.313.397 1.012.884-.7 1.134-6.571 2.022-6.571.993 0-.426-1.082-1.942-2.403-3.368l-2.403-2.592-1.103 2.79-1.103 2.792.58-3c.319-1.65.996-3.15 1.506-3.333s.926-.821.926-1.417-.284-.8-.632-.452c-.347.348-1.554.138-2.683-.466-1.695-.908-2.366-.71-3.863 1.14-.996 1.23-1.55 2.66-1.23 3.176.914 1.48-1.696 3.954-3.55 3.365-1.005-.318-2.62.474-4.033 1.978-1.297 1.38-2 2.51-1.561 2.51.438 0 .259.647-.399 1.44-.657.792-1.787 1.213-2.509.936-.73-.28-2.349.97-3.64 2.81-1.28 1.822-2.698 3.469-3.151 3.659-2.516 1.056-6.75 5.6-6.75 7.243 0 1.241-.697 1.911-1.99 1.911-1.163 0-2.924 1.423-4.235 3.423-1.234 1.883-3.517 4.175-5.073 5.095s-3.324 2.754-3.926 4.077-1.597 2.405-2.21 2.405c-.611 0-4.628 3.537-8.926 7.86-6.278 6.315-7.48 7.987-6.118 8.51 1.67.64 5.51-1.236 25.979-12.69 15.094-8.448 23.483-13.818 25.028-16.023.81-1.156 1.472-1.798 1.472-1.427s2.15-1.476 4.779-4.104 5.643-5.263 6.7-5.854c1.335-.747 1.92-2.164 1.92-4.643 0-3.681.775-4.405 5.6-5.24 1.93-.333 2.158-.202 1 .574-.824.554-1.107 1.013-.627 1.022.48.008.329.67-.336 1.471s-.956 1.864-.649 2.362c.64 1.035-7.69 9.182-9.387 9.182-.615 0-.896.36-.625.798.27.439.072 1.451-.441 2.25-.768 1.194-1.087 1.215-1.795.118-.7-1.084-.97-1.049-1.444.186-.32.835-.15 1.663.378 1.839s-2.76 3.996-7.307 8.49l-8.266 8.17-25 10.201c-13.75 5.611-25.563 10.418-26.25 10.682s-1.25.196-1.25-.152m9.449-4.921c1.773-1.296 1.772-1.362-.028-2.053-1.023-.392-1.522-.376-1.11.037.414.413-.275 1.321-1.53 2.018-1.544.857-1.777 1.278-.722 1.302.857.02 2.383-.568 3.39-1.304m71.55-59.16c-.684-.826-1.725-1.5-2.313-1.5s-.195.66.873 1.467c2.508 1.898 2.998 1.908 1.44.032m-46 60.092c0-.728 5.349-3.452 9.999-5.092 3.543-1.25 3.74-1.216 3.272.573-.274 1.047-.845 1.689-1.27 1.426s-1.322.183-1.993.991c-.67.808-2.184 1.4-3.363 1.316-1.18-.084-3.157.18-4.394.587-1.238.408-2.25.497-2.25.2m34.925-21.923c2.548-2.806 3.096-3.151 3.044-1.92-.017.413-1.254 1.614-2.75 2.67l-2.718 1.92zm7.739-7.837c2.058-2.108 3.965-3.833 4.236-3.833s-.953 1.492-2.72 3.316-2.981 3.549-2.697 3.833c.285.285-.175.518-1.022.518-1.004 0-.237-1.335 2.203-3.834m29.67 1.711c0-.8.382-1.22.85-.93.467.288.59.943.274 1.455-.809 1.309-1.124 1.161-1.124-.525m-16.817-15.489c3.77-3.82 7.22-6.718 7.669-6.44 1.023.632 1.07 1.47.065 1.135-.413-.137-.75.04-.75.395 0 1.012-3.661 4.8-4.413 4.565-.37-.115-2.226 1.478-4.124 3.54s-3.866 3.75-4.375 3.75 2.159-3.125 5.928-6.945m67.563 5.362c.048-1.165.285-1.402.604-.604.289.721.253 1.584-.079 1.916-.332.333-.569-.258-.525-1.312m-73.339-12.917c1.736-2.515 31.824-32.995 34.04-34.483.396-.266-5.189 5.584-12.41 13-7.222 7.416-15.51 15.958-18.416 18.983s-4.352 4.15-3.214 2.5m100.339-.083c.048-1.165.285-1.402.604-.604.289.721.253 1.584-.079 1.916-.332.333-.569-.258-.525-1.312m-80.58-6.417c2.71-2.75 5.15-5 5.426-5s-1.717 2.25-4.425 5c-2.709 2.75-5.15 5-5.425 5s1.716-2.25 4.425-5m81.58 1.417c.048-1.165.285-1.402.604-.604.289.721.253 1.584-.079 1.916-.332.333-.569-.258-.525-1.312m1.079-4.417c0-1.375.227-1.937.504-1.25s.277 1.813 0 2.5-.504.125-.504-1.25m-76.158-3.377c0-.208.787-.996 1.75-1.75 1.586-1.244 1.621-1.209.377.377-1.306 1.666-2.127 2.196-2.127 1.373m77.616-4.123c.271-2.75.726-6.125 1.011-7.5.5-2.407.377-2.37-3.304.999l-3.823 3.498 4-4.31 4-4.31.247 2.812c.136 1.546-.398 5.286-1.188 8.311l-1.436 5.5zm-58.616-16c1.292-1.375 2.573-2.5 2.848-2.5s-.556 1.125-1.848 2.5-2.574 2.5-2.849 2.5.557-1.125 1.849-2.5m-6-6.877c0-.208.787-.996 1.75-1.75 1.586-1.244 1.621-1.209.377.377-1.306 1.666-2.127 2.196-2.127 1.373m22.733-10.747c.678-.683 1.485-.99 1.793-.683.308.308-.247.867-1.233 1.243-1.425.543-1.54.428-.56-.56m5.767-5.876c.995-1.1 2.035-2 2.31-2s-.315.9-1.31 2-2.035 2-2.31 2 .314-.9 1.31-2m-5.993-6.9 1.993-2.4-2.5.582c-1.375.32-4.3.832-6.5 1.14-3.711.516-3.639.449 1-.935 2.75-.82 6.055-1.378 7.344-1.24l2.344.253-2.837 2.5c-2.804 2.471-2.814 2.473-.844.1m-14.695.217c.722-.289 1.585-.253 1.917.079s-.258.569-1.313.525c-1.164-.048-1.401-.285-.604-.604m28.188-.694c0-.208.787-.996 1.75-1.75 1.586-1.244 1.621-1.209.377.377-1.306 1.666-2.127 2.196-2.127 1.373m8-8.623c0-.55.476-1 1.059-1 .582 0 .78.45.44 1s-.816 1-1.058 1-.441-.45-.441-1m50.5-18c-.34-.55-.168-1 .382-1s1.278.45 1.618 1 .168 1-.382 1-1.278-.45-1.618-1m12.5-30.377c0-.208.787-.996 1.75-1.75 1.586-1.244 1.621-1.209.377.377-1.306 1.666-2.127 2.196-2.127 1.373m29.71-12.623c.288-1.1.9-2 1.361-2 .462 0 3.56-3.573 6.884-7.94s6.472-8.206 6.993-8.528c.522-.323-2.515 4.116-6.75 9.862-7.78 10.561-9.439 12.242-8.488 8.606m9.29-17.406c0-.2 1.125-1.101 2.5-2.002s2.5-1.25 2.5-.775c0 .474-1.125 1.375-2.5 2.001-1.375.627-2.5.976-2.5.776" style="fill:#08c7d9" transform="translate(-648.778 -208.432)"/><path d="M685.976 509.432c16.542-16.5 30.332-30 30.647-30s-.985 1.501-2.887 3.336c-6.212 5.993-9.762 10.559-8.585 11.043.62.255.34.499-.623.542s-1.75.582-1.75 1.196c0 .634.888.884 2.057.578 1.703-.445 1.85-.289.857.908-.66.795-.97 1.674-.69 1.954s7.431-4.976 15.892-11.68a8244 8244 0 0 1 16.715-13.222c1.081-.84 1.193-.296.597 2.906-.715 3.841-4.877 11.606-6.578 12.272-.467.184-.85 1.143-.85 2.132s-1.463 3.268-3.25 5.066c-1.788 1.797-2.575 2.942-1.75 2.544 1.333-.643 1.333-.576 0 .6-.825.73-1.491 2.225-1.48 3.325.024 2.3-1.76 4.693-2.555 3.43-.293-.468-1.072.011-1.73 1.064-1.15 1.842-.825 1.907 8.535 1.702 7.427-.163 10.677-.688 13.73-2.219 4.796-2.403 4.794-2.269.288-20.785-3.63-14.918-4.636-12.415 9.402-23.395 4.78-3.738 11.365-8.92 14.633-11.515l5.943-4.719-4.996 12.219c-11.254 27.522-13.734 33.528-16.563 40.114l-2.962 6.895-14.372 5.446c-7.905 2.995-17.973 6.733-22.373 8.307s-18.35 6.707-31 11.407-23.31 8.547-23.688 8.548 12.845-13.499 29.386-29.999m38.802 3.538 4.5-1.432-4.649.197c-2.556.108-4.466.496-4.243.862.222.365-.161.892-.852 1.17-2.784 1.123 1.036.542 5.244-.797m-23.873-10.288c1.244-1.586 1.209-1.621-.377-.377-.963.754-1.75 1.542-1.75 1.75 0 .823.821.293 2.127-1.373m-51.127 30.408c0-.417 15.221-41.952 20.946-57.158 2.278-6.05 5.264-14.15 6.635-18 1.372-3.85 2.927-7.781 3.456-8.736.53-.955.963-2.332.963-3.06 0-.727.67-2.195 1.491-3.263 1.322-1.72 1.322-1.443 0 2.435-1.44 4.226-2.012 11.27-.997 12.285.922.922 6.49-.379 5.875-1.373-.4-.645.037-.653 1.26-.023 2.132 1.1 4.67.528 3.812-.86-.835-1.35.542-5.033 1.63-4.36.511.315.929.042.929-.608 0-.834.498-.777 1.692.19.93.756 1.383.858 1.005.228-1.35-2.255 2.61-2.33 8.902-.172 3.52 1.209 6.4 2.502 6.4 2.874s-5.791 8.096-12.87 17.164c-7.08 9.068-15.94 20.49-19.69 25.383s-8.662 11.146-10.916 13.896c-6.635 8.094-7.423 9.383-3.993 6.53 1.633-1.36-1.296 1.903-6.51 7.25-9.008 9.236-10.02 10.183-10.02 9.378m29-70.158c0-.825-.177-1.5-.393-1.5s-.652.675-.969 1.5-.14 1.5.393 1.5.969-.675.969-1.5m-9 50.082c0-.543 5.76-6.304 15.074-15.077 4.116-3.878 2.53-1.984-3.557 4.25-10.649 10.902-11.517 11.72-11.517 10.827m93.003-21.558c1.18-3.012 3.861-9.537 5.958-14.5s6.098-14.721 8.89-21.684l5.078-12.66 20.785-20.361c33.388-32.706 41.286-40.243 41.286-39.398 0 .438-2.462 3.219-5.472 6.18-3.87 3.81-5.282 5.876-4.826 7.066.48 1.25.237 1.524-.946 1.07-.942-.362-1.828.009-2.173.908-.825 2.15-.755 2.355.81 2.355 1.485 0 2.93 2.668 2.139 3.948-.261.422-5.55 3.852-11.753 7.621-12.627 7.673-15.97 10.432-19.113 15.777-6.007 10.215-18.573 31.07-22.99 38.154-10.319 16.554-13.676 24.253-7.848 18 1.537-1.65 7.493-7.499 13.234-12.998 8.53-8.171 7.984-7.496-2.995 3.697-7.388 7.531-13.87 13.423-14.404 13.093s-.696-.155-.36.391c.338.546-1.2 2.753-3.416 4.905l-4.03 3.912zm-55.003-16.524c1.292-1.375 2.573-2.5 2.848-2.5s-.556 1.125-1.848 2.5-2.574 2.5-2.849 2.5.557-1.125 1.849-2.5m20-7.877c0-.208.787-.996 1.75-1.75 1.586-1.244 1.621-1.209.377.377-1.306 1.666-2.127 2.196-2.127 1.373m70.5-8.623c.995-1.1 2.035-2 2.31-2s-.315.9-1.31 2-2.035 2-2.31 2 .314-.9 1.31-2m3.5-3.313c0-.172 1.462-1.634 3.25-3.25l3.25-2.937-2.937 3.25c-2.738 3.03-3.563 3.71-3.563 2.937m8-7.564c0-.483.748-1.496 1.663-2.25 1.51-1.245 1.552-1.163.465.877-1.24 2.327-2.128 2.9-2.128 1.373m-40.934-26.623c12.299-12.375 22.575-22.5 22.835-22.5s-.736 1.262-2.214 2.805c-1.478 1.542-2.687 3.792-2.687 5 0 1.207-.41 2.195-.912 2.195-.94 0-.866 1.221.26 4.25 1.438 3.863 1.49 4.64.346 5.107-.857.348-.868.508-.04.564.674.046-.115 2.47-1.898 5.83-5.673 10.69-3.136 7.05 20.385-29.25 3.564-5.5 8.902-14.05 11.863-19 4.624-7.733 8.843-12.452 29.948-33.5 13.51-13.476 25.911-25.626 27.557-27l2.99-2.5-2.25 2.564c-2.701 3.079-2.86 4.101-.5 3.216 1.533-.574 1.58-.446.378 1.032-1.422 1.749-.99 2.066 2.326 1.705 1.64-.178 1.75.031.693 1.306-1.016 1.224-1.009 1.923.037 3.598 1.65 2.642 3.817 2.687 3.817.078 0-1.613.666-2 3.45-2 3.747 0 5.622-2.007 4.802-5.142-.325-1.245.048-1.858 1.131-1.858.89 0 1.629.788 1.644 1.75.04 2.605 5.79-4.617 6.17-7.75.166-1.375.753-2.415 1.303-2.31 1.702.322 5.5-3.924 5.5-6.15 0-1.418.633-2.111 1.926-2.111 2.393 0 2.692-.483-9.013 14.571-5.345 6.875-13.475 16.08-18.066 20.457-7.902 7.532-62.154 60.203-90.371 87.736l-13.024 12.708-13.97 3.55c-7.682 1.952-14.6 3.55-15.373 3.55s8.658-10.126 20.957-22.5m112.058-90.767c-.988-.98-1.103-.865-.56.56.376.986.935 1.541 1.243 1.234.308-.308 0-1.115-.683-1.794m-67.124 112.89c0-.208.787-.996 1.75-1.75 1.586-1.244 1.621-1.209.377.377-1.306 1.666-2.127 2.196-2.127 1.373m4-3.177c0-.305 1.406-1.992 3.125-3.75l3.125-3.196-2.744 3.75c-2.632 3.597-3.506 4.394-3.506 3.196m-119.095-3.916c2.972-1.404 5.635-2.323 5.916-2.042s-.125.519-.905.527c-1.153.013-1.169.172-.087.858.9.57.092 1.018-2.5 1.386-2.106.3-4.73.832-5.83 1.184s.433-.509 3.406-1.913m127.6-5.536c.999-1.103 2.033-1.79 2.298-1.524.672.672-1.822 3.53-3.08 3.53-.569 0-.216-.903.782-2.006m-132.505-2.22c1.547-1.688 24.414-12.636 25.276-12.103.583.36.733.153.344-.476-.412-.666.835-1.866 3.095-2.98 6.724-3.312 22.605-12.35 29.391-16.728 11.384-7.342 12.225-6.515 2.894 2.846l-8.5 8.527-25 10.197c-27.585 11.252-28.217 11.498-27.5 10.717m25-.774c.825-.533 1.95-.97 2.5-.97s.325.437-.5.97-1.95.97-2.5.97-.325-.437.5-.97m119.2-8.561c7.185-7.382 8.525-9.244 7.7-10.689-.752-1.316-.646-1.75.428-1.75.785 0 1.983-.67 2.663-1.489s1.63-1.245 2.114-.946c.483.299 2.003-.582 3.378-1.957 1.413-1.413 2.069-2.767 1.508-3.113-.545-.337-.991-.081-.991.569 0 .896-.352.89-1.456-.028-.801-.664-1.985-.882-2.63-.483-.72.445-1.004.215-.734-.592.241-.725 1.294-1.8 2.339-2.39 1.044-.589 3.998-2.42 6.562-4.07 6.913-4.448 11.27-6.838 12.622-6.924.662-.042 1.863-.976 2.669-2.075.805-1.1 1.717-1.746 2.026-1.437.31.31-9.229 10.209-21.196 21.999-22.738 22.4-31.935 30.717-17.002 15.375m10.3-10.439c.34-.55.141-1-.441-1-.583 0-1.06.45-1.06 1s.2 1 .442 1 .719-.45 1.059-1m9.225-12c-.177-2.342-.591-2.417-3.057-.548-1.738 1.317-1.713 1.41.5 1.832 1.283.244 2.416.505 2.52.58.103.075.12-.764.037-1.864m-124.446 24.864c.918-.514 3.593-1.59 5.945-2.39l4.276-1.457-2.85 2.147c-1.566 1.181-4.242 2.257-5.945 2.39-2.37.187-2.705.025-1.426-.69m18.8-4.447c.048-1.165.285-1.402.604-.604.289.721.253 1.584-.079 1.916-.332.333-.569-.258-.525-1.312m.92-3.358c0-.517.446-1.216.99-1.552.566-.35.734.051.392.941-.664 1.733-1.381 2.05-1.381.611m-34.079-11.42c1.332-1.447 2.614-2.438 2.85-2.201.718.717-.755 2.486-3.076 3.692-2.092 1.088-2.081 1.019.226-1.49m5.845-5.152c1.367-2.493 13.04-14.03 13.588-13.43.223.244-2.988 3.812-7.136 7.93-4.147 4.117-7.05 6.592-6.452 5.5m38.235-7.864c0-.208.685-.947 1.523-1.642 1.273-1.057 1.42-.995.893.378-.538 1.401-2.416 2.384-2.416 1.264m9-9.123c1.866-1.925 3.617-3.5 3.892-3.5s-1.026 1.575-2.892 3.5-3.618 3.5-3.893 3.5 1.027-1.575 2.893-3.5m-31.19.918c1.29-2.487 4.19-5.057 4.19-3.715 0 .522-1.186 2.04-2.636 3.373-2.352 2.163-2.52 2.2-1.555.342m36.19-5.795c0-.208.787-.996 1.75-1.75 1.586-1.244 1.621-1.209.377.377-1.306 1.666-2.127 2.196-2.127 1.373m.897-31.76c16.04-16.025 29.474-28.826 29.854-28.445.38.38.2 1.004-.4 1.386-.599.383-2.52 3.03-4.267 5.883-2.002 3.267-3.983 5.302-5.353 5.5-1.524.22-2.483 1.388-3.203 3.904-.889 3.104-1.384 3.542-3.652 3.232-1.934-.263-3.057.304-4.273 2.16-.907 1.384-1.359 2.517-1.004 2.517s.09.67-.59 1.49c-.68.818-1.682 1.212-2.228.875-.545-.337-4.511 2.93-8.814 7.261-17.518 17.634-23.51 23.388-24.35 23.381-.485-.004 12.241-13.118 28.28-29.144m77.103 28.76c0-.208.787-.996 1.75-1.75 1.586-1.244 1.621-1.209.377.377-1.306 1.666-2.127 2.196-2.127 1.373m29.158-22.623c0-1.375.227-1.937.504-1.25s.277 1.813 0 2.5-.504.125-.504-1.25m25.883-50.114c-.022-.338 1.304-2.138 2.95-4 1.644-1.862 3.25-4.173 3.567-5.136.317-.962 1.012-1.75 1.544-1.75.616 0 .624.636.02 1.75-1.218 2.25-8.026 9.946-8.08 9.136m10.89-14.79c1.138-1.598 2.083-3.285 2.1-3.75s1.188-1.689 2.601-2.719c2.529-1.843 2.553-1.841 1.523.083-.575 1.075-1.792 2.574-2.705 3.331-.912.757-2.05 2.408-2.53 3.668-.479 1.26-1.362 2.291-1.964 2.291-.6 0-.162-1.307.976-2.904m9.63-12.997c-.34-.55.295-1.487 1.41-2.084 2.308-1.234 2.751.14.618 1.911-.91.755-1.63.817-2.028.173m7.876-9.428c1.54-2.019 3.002-3.67 3.25-3.67.694 0-3.635 5.849-4.915 6.64-.624.386.125-.95 1.665-2.97m4.563-6.048c0-.208.787-.996 1.75-1.75 1.586-1.244 1.621-1.209.377.377-1.306 1.666-2.127 2.196-2.127 1.373m4.1-5.327c.728-1.213 1.54-1.99 1.802-1.727.263.263-.332 1.256-1.323 2.205-1.722 1.65-1.744 1.628-.479-.478m7.9-10.522c0-.858.738-1.843 1.641-2.19 1.43-.548 1.466-.4.283 1.143a90 90 0 0 0-1.641 2.19c-.156.229-.283-.285-.283-1.143" style="fill:#08b5c9" transform="translate(-648.778 -208.432)"/><path d="M676.485 518.894c24.13-23.834 27.895-27.272 16.793-15.334-10.532 11.324-10.955 11.872-9.162 11.872.78 0 1.955-.648 2.612-1.44.658-.793 1.78-1.217 2.494-.943 1.353.52 4.556-2.074 4.556-3.688 0-.511.635-.929 1.411-.929.806 0 1.268.752 1.077 1.75a505 505 0 0 0-.427 2.25c-.05.275-.528-.175-1.061-1-.829-1.282-.972-1.245-.985.25-.008.963.461 1.75 1.044 1.75.582 0 .821.384.531.854s.561 1.35 1.892 1.956c2.698 1.23 18.873 1.01 22.018-.297 1.1-.457 1.739-.536 1.42-.176s-4.369 1.986-9 3.612-18.77 6.802-31.42 11.502-23.357 8.547-23.793 8.548 8.564-9.24 20-20.537m20.293 3.448c.825-.467 1.162-.863.75-.88-1.66-.067-2.334-.272-4.25-1.292-1.813-.965-1.867-.904-.581.655 1.08 1.308 1.11 1.647.125 1.414-.712-.169-1.516.303-1.788 1.048-.368 1.013.105 1.172 1.875.63 1.303-.4 3.044-1.109 3.869-1.575m4.729-2.514c-.332-.332-1.195-.368-1.917-.08-.797.32-.56.557.604.605 1.055.044 1.645-.193 1.313-.525m-51.73 13.262c0-.188 3.871-10.875 8.602-23.75s9.28-25.345 10.112-27.712c2.342-6.67 2.514-4.36.327 4.392-1.663 6.654-1.76 8.12-.62 9.262.811.81 2.203 1.087 3.461.688 2.28-.724 2.275-.421.225-14.519-.886-6.09-.744-6.994 2.353-15 1.813-4.685 3.893-10.319 4.622-12.519s1.66-4.402 2.067-4.894c.876-1.058.058 3.03-1.18 5.894-5.328 12.336-6.047 15.384-5.707 24.178.222 5.743.615 8.08 1.125 6.694.43-1.17 1.883-2.63 3.227-3.241 1.343-.613 2.708-1.804 3.032-2.648.459-1.196.898-1.277 1.994-.367 1.143.948 1.277.829.715-.635-.566-1.476-.3-1.7 1.477-1.235 1.193.312 2.169.132 2.169-.399 0-.53.45-.687 1-.347s1-.222 1-1.25c0-1.027.676-2.741 1.502-3.809 1.268-1.638 1.407-1.666.889-.18-.462 1.325-.215 1.609.992 1.146.883-.34 1.388-.968 1.122-1.398s.152-1.31.929-1.954c1.137-.944 1.497-.723 1.852 1.137.287 1.501.525.91.68-1.692l.238-4 .811 3.442c.734 3.115.414 3.924-3.358 8.5-2.292 2.782-5.066 6.269-6.163 7.748-6.48 8.74-15.091 19.473-16.423 20.471-.852.64-1.961.907-2.465.596s-.581-.025-.172.636c.441.715-1.34 4.057-4.396 8.245-2.826 3.873-4.554 6.714-3.838 6.314.715-.401-1.612 2.258-5.171 5.91-6.145 6.303-7.03 7.095-7.03 6.296m80-21.69c0-.532.676-.968 1.5-.968.826 0 1.5.177 1.5.393s-.674.652-1.5.969c-.824.316-1.5.14-1.5-.393m16.658-7.178c.217-1.26-1.112-8.884-2.953-16.943l-3.347-14.653 5.52-4.347c10.79-8.498 16.69-13.257 21.789-17.573l5.166-4.373-5.03 12.3c-11.27 27.564-13.764 33.606-16.626 40.269-2.992 6.965-5.264 9.64-4.52 5.32m16.432-13.016c1.133-2.874 3.775-9.287 5.872-14.25s6.098-14.721 8.89-21.684l5.078-12.66 20.785-20.425c11.432-11.233 23.036-22.411 25.786-24.84l5-4.415-4.065 4.5c-2.235 2.475-7.345 7.875-11.354 12-13.25 13.634-14.735 15.43-19.678 23.814a23177 23177 0 0 0-15.138 25.686c-5.953 10.123-7.706 12.486-9.265 12.494-.886.004-1.558 1.014-1.642 2.467-.16 2.767-3.649 10.54-6.72 14.97-1.281 1.848-1.497 2.622-.585 2.095.796-.46.125.584-1.49 2.32-1.616 1.734-3.072 3.154-3.236 3.154s.629-2.352 1.762-5.226m-51.09-8.274c1.293-1.375 2.574-2.5 2.85-2.5.274 0-.557 1.125-1.85 2.5-1.291 1.375-2.573 2.5-2.848 2.5s.557-1.125 1.849-2.5m-12-16.469c0-.532.676-.71 1.5-.393.826.317 1.5.753 1.5.97 0 .215-.674.392-1.5.392-.824 0-1.5-.436-1.5-.969m2-2.53c0-.826.178-1.5.394-1.5s.652.674.968 1.5c.317.824.14 1.5-.393 1.5-.532 0-.968-.676-.968-1.5m-19.435-19.794c.376-.986.935-1.541 1.243-1.233s0 1.114-.683 1.793c-.988.98-1.103.865-.56-.56m76.044-11.899c12.997-12.713 13.364-13.045 11.366-10.308-.803 1.1-3.826 4.25-6.718 7s-5.258 5.338-5.257 5.75c0 .413 1.377.75 3.06.75 1.682 0 2.849.338 2.592.75-.256.413 2.305.65 5.691.526 3.387-.124 5.708-.02 5.158.231-1.553.708-24.854 6.487-26.167 6.49-.642.001 3.982-5.033 10.275-11.189m20.619.756c3.504-3.306 14.457-18.987 20.093-28.768 1.49-2.587 3.49-5.287 4.445-6 .954-.713 1.735-1.746 1.735-2.296 0-2.075 11.782-19.443 12.775-18.83.597.37.733.152.32-.515-.392-.635-.405-1.653-.03-2.262.492-.794.892-.77 1.42.084.53.858.906.748 1.344-.393.335-.871.147-1.584-.417-1.584-1.911 0 2.47-5.937 9.026-12.232 3.59-3.447 5.193-4.784 3.562-2.97-2.49 2.768-2.728 3.452-1.483 4.268 1.281.84 1.236 1.16-.327 2.357-1.144.876-1.42 1.626-.75 2.04.583.36 1.06.254 1.06-.237s.65-.893 1.446-.893c1.041 0 1.195.468.551 1.672-.492.92-.635 2.663-.319 3.874.471 1.8 1.148 2.13 3.7 1.807 1.717-.219 3.015-.896 2.884-1.505-.133-.62.44-.848 1.3-.518 1.233.473 1.408.068.88-2.036-.49-1.957-.278-2.627.833-2.627.82 0 1.725.892 2.01 1.982.406 1.554-4.046 6.466-20.634 22.764-39.701 39.007-47.246 46.254-48.157 46.254-.5 0 .729-1.546 2.733-3.437m52.762-55.177c-.088-.365.366-.988 1.01-1.386.834-.516.734-.89-.347-1.304-1.169-.449-1.494.149-1.42 2.61.05 1.757.279 2.642.506 1.968s.34-1.523.251-1.888m-1.99-.328c0-.517-.374-1.173-.833-1.456s-.833.14-.833.941.375 1.456.833 1.456c.459 0 .834-.423.834-.94m-135.604 50.111c.397-.643 1.226-1.17 1.84-1.17.616 0 4.838-1.8 9.383-4s8.74-4 9.323-4c.582 0 1.059-.436 1.059-.969s.629-.727 1.398-.432 2.29-.422 3.382-1.594c3.077-3.302 21.72-13.265 25.319-13.53 1.801-.133 7.087-3.956 6.408-4.635-.234-.234 1.84-1.909 4.61-3.722 2.77-1.814 5.213-3.12 5.429-2.905s-3.306 4.047-7.827 8.515l-8.22 8.122-25 10.202c-13.75 5.611-25.636 10.447-26.413 10.745-.9.346-1.152.118-.691-.627m147.605-11.988c0-1.209 1.897-2.618 2.59-1.925.252.252-.228 1.027-1.066 1.723-.95.789-1.524.865-1.524.202m8-7.495c0-.172 1.462-1.634 3.25-3.25l3.25-2.937-2.937 3.25c-2.738 3.03-3.563 3.71-3.563 2.937m-132-5.064c0-.208.787-.996 1.75-1.75 1.586-1.244 1.621-1.209.377.377-1.306 1.666-2.127 2.196-2.127 1.373m140-2.936c0-.172 1.462-1.634 3.25-3.25l3.25-2.937-2.937 3.25c-2.738 3.03-3.563 3.71-3.563 2.937m10-10.187c1.866-1.925 3.617-3.5 3.892-3.5s-1.026 1.575-2.892 3.5-3.618 3.5-3.893 3.5 1.027-1.575 2.893-3.5m-27.5-3.5c2.148-2.2 4.13-4 4.406-4s-1.258 1.8-3.406 4-4.131 4-4.406 4 1.258-1.8 3.406-4m34-3c.995-1.1 2.035-2 2.31-2s-.315.9-1.31 2-2.035 2-2.31 2 .314-.9 1.31-2m-124.5-12.377c0-.208.787-.996 1.75-1.75 1.586-1.244 1.621-1.209.377.377-1.306 1.666-2.127 2.196-2.127 1.373m96-3.39c0-.486 1.11-1.928 2.469-3.204s2.242-2.688 1.963-3.138c-.752-1.218 3.29-4.89 5.384-4.89 1.863 0 16.14-12.828 31.13-27.969 4.647-4.692 7.263-6.957 5.815-5.032-2.586 3.437-43.063 42.897-45.511 44.367-.688.413-1.25.353-1.25-.134m-79-13.733c1.292-1.375 2.573-2.5 2.848-2.5s-.556 1.125-1.848 2.5-2.574 2.5-2.849 2.5.557-1.125 1.849-2.5m92-3.059c0-.857.457-1.276 1.016-.93.56.345.758 1.046.441 1.558-.857 1.387-1.457 1.129-1.457-.628m-85.495-3.447c.999-1.103 2.033-1.79 2.298-1.524.672.672-1.822 3.53-3.08 3.53-.569 0-.216-.903.782-2.006m9.415-9.354c1.332-1.448 2.614-2.439 2.85-2.202.718.717-.755 2.486-3.076 3.692-2.092 1.088-2.081 1.019.226-1.49m9.122-9.223c2.452-2.52 7.158-6.873 10.458-9.673 4.303-3.65 3.27-2.353-3.652 4.583-5.309 5.32-10.015 9.673-10.458 9.673-.444 0 1.2-2.062 3.652-4.583m106.883-14.667c2.373-3.162 4.514-5.75 4.757-5.75.683 0-5.896 8.937-7.579 10.295-.821.663.449-1.382 2.822-4.545m7.711-11.256c-.315-.821-.164-1.494.336-1.494 1.356 0 2.197 1.777 1.149 2.425-.501.31-1.17-.109-1.485-.93m17.364-21.871c0-.208.787-.996 1.75-1.75 1.586-1.244 1.621-1.209.377.377-1.306 1.666-2.127 2.196-2.127 1.373m7-9.441c0-1.209 1.897-2.618 2.59-1.925.252.252-.228 1.027-1.066 1.723-.95.789-1.524.865-1.524.202" style="fill:#0ba2b4" transform="translate(-648.778 -208.432)"/></svg>