<svg xmlns="http://www.w3.org/2000/svg" viewBox="0 0 64 64" width="64" height="64">
  <g transform="translate(32, 34) rotate(-25) scale(0.23)">
    <polygon points="5,-135 15,-90 -5,-85" fill="#00E5FF"/>
    <polygon points="-30,-95 -18,-70 -38,-62" fill="#4DE8FF"/>
    <polygon points="-5,-85 15,-90 10,-55 -18,-70" fill="#00D6F0"/>
    <polygon points="-18,-70 -38,-62 -50,-25 -25,-15 10,-55" fill="#00E5FF"/>
    <polygon points="10,-55 15,-90 30,-40 35,-5 5,-10" fill="#00CCE0"/>
    <polygon points="-25,-15 10,-55 5,-10" fill="#00D6F0"/>
    <polygon points="5,-10 35,-5 30,35 0,40" fill="#00B8D0"/>
    <polygon points="-50,-25 -25,-15 -15,30 -40,20" fill="#00BBCF"/>
    <polygon points="-25,-15 5,-10 0,40 -15,30" fill="#00A8C0"/>
    <polygon points="-15,30 0,40 -10,55 -20,40" fill="#009DB5"/>
    <polygon points="0,40 30,35 20,55 -10,55" fill="#009DB5"/>
  </g>
</svg>
